<svg xmlns="http://www.w3.org/2000/svg" viewBox="0 0 1600 800"><defs><linearGradient id="bg" x1="0" y1="0" x2="0" y2="1"><stop stop-color="#06090b"/><stop offset="1" stop-color="#0f1111"/></linearGradient><radialGradient id="warm"><stop stop-color="#d9a44f" stop-opacity=".35"/><stop offset="1" stop-color="#d9a44f" stop-opacity="0"/></radialGradient></defs><rect width="1600" height="800" fill="url(#bg)"/><g fill="#151919" stroke="#6f5a31" stroke-width="3"><path d="M140 690V180L260 80l120 100v510Z"/><path d="M410 690V220L520 120l110 100v470Z"/><path d="M660 690V150L800 40l140 110v540Z"/><path d="M970 690V220l120-100 120 100v470Z"/><path d="M1240 690V180l120-100 120 100v510Z"/></g><g fill="#c89b3c"><rect x="220" y="265" width="16" height="45" rx="8"/><rect x="485" y="300" width="18" height="50" rx="9"/><rect x="785" y="225" width="20" height="54" rx="10"/><rect x="1045" y="302" width="17" height="46" rx="8"/><rect x="1318" y="264" width="16" height="45" rx="8"/></g><ellipse cx="800" cy="420" rx="360" ry="190" fill="url(#warm)"/><path d="M0 690 Q800 620 1600 690 V800 H0Z" fill="#080909"/><g stroke="#8b6d3a" opacity=".45"><path d="M120 690 L520 690"/><path d="M1080 690 L1480 690"/></g></svg>
